<?xml version="1.0" standalone="no"?>
<!DOCTYPE svg PUBLIC "-//W3C//DTD SVG 20010904//EN"
 "http://www.w3.org/TR/2001/REC-SVG-20010904/DTD/svg10.dtd">
<svg version="1.0" xmlns="http://www.w3.org/2000/svg"
 width="640.000000pt" height="640.000000pt" viewBox="0 0 640.000000 640.000000"
 preserveAspectRatio="xMidYMid meet">
<metadata>
Created by potrace 1.11, written by Peter Selinger 2001-2013
</metadata>
<g transform="translate(0.000000,640.000000) scale(0.100000,-0.100000)"
fill="#000000" stroke="none">
<path d="M3100 5744 c-25 -9 -58 -26 -75 -37 -16 -12 -260 -251 -540 -531
-400 -400 -516 -522 -535 -561 -35 -72 -35 -199 -1 -270 19 -39 139 -164 545
-571 499 -498 552 -546 621 -563 11 -3 54 -5 95 -5 128 0 114 -12 695 569 397
397 526 532 545 570 35 71 35 197 0 270 -19 39 -144 169 -545 571 -318 319
-534 527 -555 536 -61 27 -74 30 -140 34 -43 3 -80 -2 -110 -12z"/>
<path d="M210 5099 c-69 -24 -139 -87 -176 -159 l-29 -55 -2 -1165 c-3 -1267
-5 -1212 53 -1327 14 -29 37 -64 50 -78 13 -14 24 -30 24 -35 0 -4 3 -10 8
-12 4 -1 27 -30 52 -63 25 -33 48 -62 51 -65 3 -3 30 -36 59 -75 119 -155 155
-200 162 -203 5 -2 8 -10 8 -17 0 -7 4 -15 8 -17 5 -2 33 -34 62 -73 109 -141
155 -200 160 -205 3 -3 31 -40 63 -82 31 -42 63 -83 70 -90 7 -7 18 -20 23
-29 5 -9 23 -33 39 -54 119 -149 163 -205 180 -229 11 -16 36 -49 56 -75 50
-64 85 -130 110 -206 24 -76 46 -107 93 -129 31 -15 106 -16 729 -16 766 1
732 -2 781 63 33 44 36 58 36 177 0 58 0 119 1 135 0 17 1 36 0 43 -1 17 -2
36 -2 87 0 25 0 51 0 58 -1 13 0 209 1 242 0 11 0 38 -1 60 0 22 0 47 0 55 1
27 1 219 0 227 -1 5 0 13 1 18 2 13 0 121 -5 210 -4 73 -10 113 -26 180 -5 22
-12 49 -14 59 -22 94 -91 251 -154 351 -25 39 -599 809 -650 872 -14 17 -32
32 -38 32 -7 1 -13 5 -13 10 0 12 -82 51 -122 58 -148 25 -283 -39 -349 -166
-25 -48 -31 -72 -34 -141 -4 -100 18 -140 239 -435 112 -150 211 -286 220
-303 38 -73 14 -132 -98 -242 -94 -92 -99 -96 -142 -105 -79 -15 -127 14 -224
135 -25 30 -47 57 -50 60 -3 3 -24 28 -45 55 -22 28 -43 52 -46 55 -4 3 -39
46 -79 95 -40 50 -80 97 -89 106 -9 9 -27 31 -41 49 -14 18 -30 37 -35 44 -6
6 -44 52 -85 101 -41 50 -80 96 -87 103 -7 7 -29 34 -50 60 -21 26 -40 49 -43
52 -3 3 -25 30 -50 60 -25 30 -47 57 -50 60 -3 3 -22 25 -42 50 -32 40 -36 52
-37 103 0 32 -3 62 -6 67 -3 6 -3 10 2 10 4 0 8 23 8 50 0 28 -2 50 -5 50 -3
0 -3 27 0 61 3 33 3 62 -1 64 -3 3 -3 25 1 49 4 25 3 50 0 57 -4 6 -5 23 -1
37 4 14 4 45 1 69 -4 24 -4 43 -1 43 3 0 6 23 6 50 0 28 -2 50 -5 50 -3 0 -3
27 0 61 3 33 3 62 -1 64 -3 3 -3 25 1 49 4 25 3 51 -1 58 -4 6 -6 15 -4 18 4
7 6 74 5 180 -1 41 0 80 0 85 2 13 1 130 -1 141 -1 5 0 14 1 19 4 23 2 103 -5
144 -17 111 -108 222 -208 252 -63 20 -159 19 -217 -2z"/>
<path d="M5995 5109 c-132 -37 -233 -170 -235 -309 0 -25 -1 -96 -3 -158 -1
-61 2 -112 6 -112 5 0 5 -4 2 -10 -3 -5 -6 -31 -5 -57 1 -65 1 -72 1 -118 0
-22 0 -47 0 -55 0 -8 -1 -62 -1 -120 -1 -58 0 -109 1 -115 1 -5 1 -14 0 -19
-1 -5 -2 -30 -1 -55 0 -25 1 -53 1 -61 0 -22 0 -172 0 -195 -2 -110 0 -229 5
-236 3 -5 2 -9 -3 -9 -4 0 -7 -24 -5 -52 5 -109 6 -106 -60 -186 -34 -43 -65
-79 -68 -82 -3 -3 -50 -59 -104 -125 -54 -66 -105 -125 -112 -131 -8 -6 -14
-14 -14 -18 0 -3 -8 -14 -17 -24 -10 -10 -34 -38 -53 -62 -19 -24 -42 -51 -50
-60 -15 -16 -90 -106 -120 -144 -17 -21 -80 -97 -114 -136 -11 -14 -41 -50
-66 -80 -25 -30 -47 -57 -50 -60 -3 -3 -23 -26 -43 -52 -51 -63 -80 -79 -142
-83 -64 -4 -81 6 -188 112 -90 89 -96 99 -103 156 -7 59 11 89 236 387 106
140 201 275 212 300 36 82 27 213 -20 289 -72 117 -229 180 -357 143 -81 -24
-130 -60 -192 -142 -23 -30 -49 -63 -57 -72 -9 -10 -16 -20 -16 -23 0 -3 -178
-241 -217 -290 -5 -5 -62 -82 -128 -170 -65 -88 -123 -161 -127 -163 -4 -2 -8
-7 -8 -12 0 -5 -23 -41 -50 -81 -28 -40 -50 -78 -50 -85 0 -7 -3 -14 -7 -16
-8 -3 -44 -75 -41 -81 0 -1 -8 -20 -19 -42 -12 -22 -21 -42 -21 -45 -1 -3 -3
-12 -6 -20 -4 -12 -23 -81 -31 -110 -1 -3 -5 -25 -9 -50 -5 -25 -10 -54 -13
-65 -6 -32 -12 -143 -12 -240 0 -49 0 -99 -1 -110 0 -11 0 -38 1 -60 0 -22 0
-47 0 -55 -3 -63 0 -223 4 -230 3 -5 2 -11 -2 -13 -5 -3 -6 -44 -3 -92 3 -48
3 -89 1 -91 -4 -4 -4 -119 0 -140 1 -5 0 -13 -1 -19 -1 -5 -1 -44 0 -85 1 -77
1 -91 -1 -112 -1 -7 1 -38 5 -68 7 -58 25 -91 70 -124 27 -21 38 -21 734 -23
l707 -3 40 23 c43 24 56 46 102 167 15 41 36 84 45 94 10 11 18 23 18 26 0 4
8 17 19 29 10 12 29 37 42 56 13 19 27 35 32 35 4 0 7 6 7 14 0 8 3 16 8 18 4
2 32 35 62 73 30 39 58 72 62 73 5 2 8 8 8 14 0 5 6 15 13 23 18 20 55 66 173
220 103 133 116 150 139 178 6 7 30 39 55 72 25 33 47 62 50 65 3 3 52 65 109
139 57 74 108 140 113 145 4 6 38 49 74 96 36 47 76 99 89 115 34 42 82 141
94 195 15 64 14 2346 -1 2380 -6 14 -12 30 -14 37 -12 58 -130 162 -204 181
-33 8 -147 9 -175 1z"/>
</g>
</svg>
